<?xml version="1.0" standalone="no"?><!DOCTYPE svg PUBLIC "-//W3C//DTD SVG 1.1//EN" "http://www.w3.org/Graphics/SVG/1.1/DTD/svg11.dtd"><svg t="1545187610003" class="icon" style="" viewBox="0 0 1024 1024" version="1.1" xmlns="http://www.w3.org/2000/svg" p-id="4303" xmlns:xlink="http://www.w3.org/1999/xlink" width="200" height="200"><defs><style type="text/css"></style></defs><path d="M820.665477 372.483456c0-170.94637-139.173736-310.119083-310.120107-310.119083S200.426287 201.538109 200.426287 372.483456c0 161.864528 124.803447 295.749818 283.645129 308.606637l0 61.265342L321.448618 742.355435l0 52.945863 162.622798 0 0 163.382091 52.947909 0L537.019325 795.302321l162.622798 0 0-52.945863L537.019325 742.356458l0-61.265342C695.859983 668.233274 820.665477 534.347984 820.665477 372.483456L820.665477 372.483456zM253.374196 372.483456c0-141.443429 115.728768-257.172197 257.171174-257.172197 141.444453 0 257.172197 115.728768 257.172197 257.172197 0 141.443429-115.728768 257.171174-257.172197 257.171174C369.101941 629.655653 253.374196 514.686179 253.374196 372.483456L253.374196 372.483456zM253.374196 372.483456" p-id="4304" fill="#ffb3a7"></path></svg>