<?xml version="1.0" standalone="no"?><!DOCTYPE svg PUBLIC "-//W3C//DTD SVG 1.1//EN" "http://www.w3.org/Graphics/SVG/1.1/DTD/svg11.dtd"><svg t="1545187841126" class="icon" style="" viewBox="0 0 1024 1024" version="1.1" xmlns="http://www.w3.org/2000/svg" p-id="7472" xmlns:xlink="http://www.w3.org/1999/xlink" width="200" height="200"><defs><style type="text/css"></style></defs><path d="M554.666667 285.866667 554.666667 140.8l91.733333 74.666667c6.4 4.266667 12.8 6.4 21.333333 6.4 8.533333 0 19.2-4.266667 25.6-10.666667 10.666667-12.8 8.533333-34.133333-4.266667-44.8l-140.8-117.333333c-12.8-10.666667-29.866667-10.666667-40.533333 0l-138.666667 117.333333c-12.8 10.666667-14.933333 32-4.266667 44.8s32 14.933333 44.8 4.266667l85.333333-70.4 0 140.8c-174.933333 17.066667-311.466667 164.266667-311.466667 343.466667 0 189.866667 155.733333 345.6 345.6 345.6 189.866667 0 345.6-155.733333 345.6-345.6C870.4 450.133333 731.733333 300.8 554.666667 285.866667zM524.8 910.933333c-155.733333 0-281.6-125.866667-281.6-281.6s125.866667-281.6 281.6-281.6c155.733333 0 281.6 125.866667 281.6 281.6S678.4 910.933333 524.8 910.933333z" p-id="7473" fill="#6495ed"></path></svg>