<?xml version="1.0" standalone="no"?><!DOCTYPE svg PUBLIC "-//W3C//DTD SVG 1.1//EN" "http://www.w3.org/Graphics/SVG/1.1/DTD/svg11.dtd"><svg t="1545187758408" class="icon" style="" viewBox="0 0 1024 1024" version="1.1" xmlns="http://www.w3.org/2000/svg" p-id="5459" xmlns:xlink="http://www.w3.org/1999/xlink" width="200" height="200"><defs><style type="text/css"></style></defs><path d="M750.08 170.666667 597.333333 170.666667 597.333333 85.333333 896 85.333333 896 384 810.666667 384 810.666667 230.826667 647.253333 394.24C669.44 427.946667 682.666667 469.333333 682.666667 512 682.666667 615.253333 609.28 701.44 512 721.066667L512 810.666667 597.333333 810.666667 597.333333 896 512 896 512 981.333333 426.666667 981.333333 426.666667 896 341.333333 896 341.333333 810.666667 426.666667 810.666667 426.666667 721.066667C329.386667 701.44 256 615.253333 256 512 256 394.24 351.573333 298.666667 469.333333 298.666667 512 298.666667 552.96 311.466667 586.666667 334.08L750.08 170.666667M469.333333 384C398.506667 384 341.333333 441.173333 341.333333 512 341.333333 582.826667 398.506667 640 469.333333 640 540.16 640 597.333333 582.826667 597.333333 512 597.333333 441.173333 540.16 384 469.333333 384Z" p-id="5460" fill="#c5c1aa"></path></svg>